<svg width="200" height="200" viewBox="0 0 200 200" fill="none" xmlns="http://www.w3.org/2000/svg">
<rect width="200" height="200" fill="#4CAF50"/>
<path fill-rule="evenodd" clip-rule="evenodd" d="M100.857 51.6251C98.1315 51.2134 95.3407 51 92.5 51C61.8482 51 37 75.8482 37 106.5C37 137.152 61.8482 162 92.5 162C123.152 162 148 137.152 148 106.5C148 103.659 147.787 100.869 147.375 98.1427C147.22 98.2748 147.063 98.4055 146.906 98.5348L147.1 99.49C146.449 99.6222 145.806 99.7468 145.17 99.8638C139.767 103.727 133.149 106 126 106C107.775 106 93 91.2254 93 73C93 65.5257 95.4849 58.6318 99.6735 53.0993C99.786 52.6793 99.9016 52.266 100.02 51.86L100.535 52.0101C100.641 51.8809 100.749 51.7526 100.857 51.6251Z" fill="#CDDC39"/>
<circle cx="70.5" cy="76.5" r="4.5" fill="#4CAF50"/>
<path fill-rule="evenodd" clip-rule="evenodd" d="M108.394 91.256C108.394 91.256 108.394 91.256 108.394 91.256C112.894 96.256 125.694 104.256 140.894 96.256C148.727 90.5893 163.794 71.056 161.394 38.256C161.394 38.256 161.394 38.256 161.394 38.256L161.394 38.256C128.594 35.856 109.061 50.9227 103.394 58.756C95.3939 73.956 103.394 86.7559 108.394 91.256Z" fill="#EAFFCE" fill-opacity="0.5"/>
<path d="M109.894 92.756L107.394 90.256C121.894 72.256 126.894 71.256 127.394 72.756C128.994 74.756 116.394 86.9227 109.894 92.756Z" fill="#4CAF50"/>
</svg>
